# xmcd CD database file
#
# Track frame offsets:
#	150
#	12351
#	23696
#	35998
#	47780
#	59544
#	71426
#	84233
#	96459
#	110820
#	123665
#	134928
#	147410
#	158449
#	170196
#	183291
#	194785
#	207374
#	219303
#	233196
#	245208
#	258022
#	272968
#	284689
#	299987
#	313270
#	324403
#	332968
#
# Disc length: 4633 seconds
#
# Submitted via: cddb-tool 0.4.7
#
#blues,classical,country,data,folk,jazz,newage,reggae,rock,soundtrack,misc
#CATEGORY=misc
# Revision: 0
# Processed by: cddbd v1.5.2PL0 Copyright (c) Steve Scherf et al.
#
DISCID=d712171c
DTITLE=Big Jay McNeely - King of the Honkin' Sax - CDA
DYEAR=2010
DGENRE=blues
TTITLE0=Wild Wig
TTITLE1=Sunday Diner
TTITLE2=Deacon's Groove (Cool Blood)
TTITLE3=Man Eater
TTITLE4=California Hop
TTITLE5=Cherry Smash
TTITLE6=The Deacon's Hop
TTITLE7=Artie's Jump
TTITLE8=Midnight Dreams
TTITLE9=Blow Big Jay
TTITLE10=Boogie In Front
TTITLE11=Willie The Cool Cat
TTITLE12=Gingercake
TTITLE13=K and H Boogie
TTITLE14=Roadhouse Boogie
TTITLE15=Hoippin' With Hunter
TTITLE16=Tondelayo
TTITLE17=Junie-Flip
TTITLE18=Jay's Frantic
TTITLE19=Let's Split
TTITLE20=Real Crazy Cool
TTITLE21=Deacon's Blowout
TTITLE22=Insect Ball
TTITLE23=Sad Story
TTITLE24=All That Wine Is Gone
TTITLE25=Don't Cry Baby
TTITLE26=All Brown Woman
TTITLE27=Deacon Blows For Ray
EXTD=JSP Records JSP4225A CDA
EXTT0=
EXTT1=
EXTT2=
EXTT3=
EXTT4=
EXTT5=
EXTT6=
EXTT7=
EXTT8=
EXTT9=
EXTT10=
EXTT11=
EXTT12=
EXTT13=
EXTT14=
EXTT15=
EXTT16=
EXTT17=
EXTT18=
EXTT19=
EXTT20=
EXTT21=
EXTT22=
EXTT23=
EXTT24=
EXTT25=
EXTT26=
EXTT27=
PLAYORDER=
